Coordinates
version=1
nRows=9
nColumns=36
inDegrees=yes

Units are S.I. units (second, meters, Newtons, ...)
If the header above contains a line with 'inDegrees', this indicates whether rotational values are in degrees (yes) or radians (no).

endheader
time	pelvis_tilt	pelvis_list	pelvis_rotation	pelvis_tx	pelvis_ty	pelvis_tz	hip_flexion_r	hip_adduction_r	hip_rotation_r	knee_angle_r	knee_angle_r_beta	ankle_angle_r	subtalar_angle_r	mtp_angle_r	hip_flexion_l	hip_adduction_l	hip_rotation_l	knee_angle_l	knee_angle_l_beta	ankle_angle_l	subtalar_angle_l	mtp_angle_l	lumbar_extension	lumbar_bending	lumbar_rotation	arm_flex_r	arm_add_r	arm_rot_r	elbow_flex_r	pro_sup_r	arm_flex_l	arm_add_l	arm_rot_l	elbow_flex_l	pro_sup_l
     45.45000000	     -2.38334979	      0.23157211	     -8.06949207	      0.66966102	      0.89884316	      0.78992462	     -9.52159121	      0.59415847	      1.84857332	      8.32850343	      0.14535981	     19.67152538	      4.11977344	     -7.49999987	     32.08655757	     -4.18008150	     -5.31063758	     10.32035615	      0.18012419	     10.39818655	      1.30053219	     -7.49999987	     -4.34268947	      0.86545288	     10.34032897	     16.70352637	    -21.02677901	     -1.17384050	     45.07033218	     84.53801160	     -4.82172627	     -8.14356446	      5.01721370	     15.47464603	     82.46203209
     45.46666670	     -2.38453125	      0.56923828	     -8.04051116	      0.66847375	      0.89147125	      0.78777659	    -10.63248465	      0.00818763	      2.02275558	      8.73651201	      0.15248090	     20.84222320	      4.71659894	     -7.49999987	     32.67851562	     -3.84565653	     -4.82894830	     10.20541281	      0.17811806	     10.64241889	      0.97216689	     -7.49999987	     -4.32309786	      0.30452026	     10.37879946	     16.88720270	    -20.90524718	     -1.53854717	     45.67245882	     84.70299769	     -5.38515955	     -8.10053266	      4.61649731	     15.05123283	     82.33936953
     45.48333330	     -2.31099109	      0.94551734	     -7.97246440	      0.67152261	      0.88808116	      0.78519657	    -11.63638406	     -0.66679792	      2.17853173	      9.50310813	      0.16586053	     21.47394908	      4.52727027	     -7.49999987	     33.16212774	     -3.41321912	     -4.81185311	     11.60911835	      0.20261734	     10.65335718	      0.53334972	     -7.49999987	     -4.26940234	     -0.39573243	     10.25413872	     16.60213073	    -20.69598796	     -1.57827740	     45.83875510	     84.59395636	     -5.97711668	     -8.16692789	      4.59000800	     15.15468987	     82.23864314
     45.50000000	     -1.80052865	      1.43765943	     -7.77430118	      0.67754345	      0.88838254	      0.78169613	    -12.94965916	     -1.58090841	      1.84552572	     10.68889528	      0.18655642	     21.89854206	      4.54200971	     -7.49999987	     32.96557768	     -2.44715654	     -3.91222418	     13.96179549	      0.24367930	      9.80690113	     -1.46821403	     -7.49999987	     -4.62259300	     -1.26524456	      9.95691826	     15.59137952	    -19.86271812	     -3.39814495	     46.43938868	     85.40816633	     -5.84808168	     -8.10318477	      3.77290549	     14.26890868	     82.54118813
     45.51666670	     -1.37668424	      1.98510313	     -7.68784353	      0.68536126	      0.88877577	      0.77726286	    -14.05209461	     -2.56529260	      1.76689422	     12.24417088	      0.21370110	     21.59809909	      4.00134847	     -7.49999987	     32.70004203	     -1.41187803	     -3.58536652	     16.98748517	      0.29648755	      8.87072342	     -2.13296389	     -7.49999987	     -4.66716147	     -2.20739604	      9.49456476	     14.37393680	    -19.18897817	     -3.40420400	     46.14695515	     85.28642451	     -6.12911992	     -8.33311984	      3.74178971	     14.62228089	     82.41294817
     45.53333330	     -0.52756359	      2.61631745	     -7.30627032	      0.69407318	      0.88882506	      0.77176624	    -15.59464847	     -3.60613044	      1.48770448	     13.98951203	      0.24416305	     20.43300373	      2.89243156	     -7.49999987	     31.66843667	      0.25345792	     -1.84284333	     19.64127169	      0.34280486	      6.56423132	     -4.74316779	     -7.49999987	     -5.15575445	     -3.25439612	      8.87350077	     12.64342526	    -17.98211011	     -5.29935910	     45.77825230	     85.02527387	     -5.93232641	     -8.57731933	      3.75126915	     14.74183326	     81.67683626
     45.55000000	      0.31393749	      3.32726460	     -6.88129527	      0.70209380	      0.88936838	      0.76764512	    -16.78796051	     -4.67134766	      1.02832253	     16.34642533	      0.28529894	     18.53521302	      1.49229160	     -7.49999987	     30.43288864	      1.93689361	     -0.47797655	     21.97823921	      0.38359264	      4.64134702	     -6.11943950	     -7.49999987	     -5.62147358	     -4.36210159	      8.31076519	     10.60986121	    -16.86326487	     -6.80626686	     45.31140556	     84.72032830	     -5.73773827	     -8.94918075	      4.09162348	     15.18784002	     80.83361161
     45.56666670	      1.26470969	      4.03812486	     -6.42157009	      0.70658915	      0.89077041	      0.76548320	    -17.43236420	     -5.74970972	      0.40250697	     19.73332339	      0.34441147	     15.64508235	     -0.39406169	     -7.49999987	     28.85605534	      3.55438498	      0.77002427	     23.83033765	      0.41591785	      3.01090891	     -7.23314926	     -7.49999987	     -6.31536076	     -5.44496676	      8.04124804	      8.29797561	    -15.57609103	     -9.63310880	     45.10240964	     87.61230872	     -5.31569548	     -9.45620328	      5.21028858	     15.74931172	     80.87578777
     45.58333330	      2.07112597	      4.60322237	     -6.04489081	      0.70673941	      0.89314917	      0.76450351	    -16.81431515	     -6.81535922	     -0.29880499	     24.78020122	      0.43249610	     11.25261804	     -2.61410409	     -7.49999987	     27.20572790	      4.85338285	      1.72442008	     25.18923636	      0.43963511	      1.88237612	     -8.08228290	     -7.49999987	     -6.79249841	     -6.28422330	      7.43878343	      6.80335692	    -14.58349364	    -10.11116912	     43.74522710	     86.08975868	     -5.01391654	     -9.68515586	      5.24549542	     15.86872908	     79.33072931
